<svg xmlns="http://www.w3.org/2000/svg" width="192" height="192" viewBox="0 0 192 192">
  <rect width="192" height="192" fill="#080c18"/>
  <rect x="36" y="20" width="120" height="152" fill="#2a3040" rx="2"/>
  <rect x="44" y="28" width="104" height="4" fill="#3a4050"/>
  <rect x="44" y="58" width="104" height="4" fill="#3a4050"/>
  <rect x="44" y="88" width="104" height="4" fill="#3a4050"/>
  <rect x="44" y="118" width="104" height="4" fill="#3a4050"/>
  <rect x="44" y="148" width="104" height="4" fill="#3a4050"/>
  <rect x="55" y="36" width="24" height="18" fill="#1a2030" rx="1"/>
  <rect x="87" y="36" width="24" height="18" fill="#1a2030" rx="1"/>
  <rect x="119" y="36" width="24" height="18" fill="#1a2030" rx="1"/>
  <rect x="55" y="66" width="24" height="18" fill="#1a2030" rx="1"/>
  <rect x="87" y="66" width="24" height="18" fill="#1a2030" rx="1"/>
  <rect x="119" y="66" width="24" height="18" fill="#1a2030" rx="1"/>
  <rect x="55" y="96" width="24" height="18" fill="#1a2030" rx="1"/>
  <rect x="87" y="96" width="24" height="18" fill="#1a2030" rx="1"/>
  <rect x="119" y="96" width="24" height="18" fill="#1a2030" rx="1"/>
  <rect x="55" y="126" width="24" height="18" fill="#1a2030" rx="1"/>
  <rect x="87" y="126" width="24" height="18" fill="#1a2030" rx="1"/>
  <rect x="119" y="126" width="24" height="18" fill="#1a2030" rx="1"/>
  <circle cx="66" cy="45" r="2" fill="#4a7080"/>
  <circle cx="98" cy="45" r="2" fill="#4a7080"/>
  <circle cx="130" cy="45" r="2" fill="#4a7080"/>
  <circle cx="66" cy="75" r="2" fill="#4a7080"/>
  <circle cx="98" cy="75" r="2" fill="#4a7080"/>
  <circle cx="130" cy="75" r="2" fill="#4a7080"/>
  <circle cx="66" cy="105" r="2" fill="#4a7080"/>
  <circle cx="98" cy="105" r="2" fill="#4a7080"/>
  <circle cx="130" cy="105" r="2" fill="#4a7080"/>
  <circle cx="66" cy="135" r="2" fill="#4a7080"/>
  <circle cx="98" cy="135" r="2" fill="#4a7080"/>
  <circle cx="130" cy="135" r="2" fill="#4a7080"/>
</svg>
